<?xml version="1.0" encoding="utf-8"?>
<!-- Generator: Adobe Illustrator 24.0.0, SVG Export Plug-In . SVG Version: 6.00 Build 0)  -->
<svg version="1.1" id="Layer_1" xmlns="http://www.w3.org/2000/svg" xmlns:xlink="http://www.w3.org/1999/xlink" x="0px" y="0px"
	 viewBox="0 0 40 40" style="enable-background:new 0 0 40 40;" xml:space="preserve">
<style type="text/css">
	.st0{fill:#483737;}
	.st1{fill:#FFFFFF;}
</style>
<circle class="st0" cx="20" cy="20" r="20"/>
<path class="st1" d="M28,16l-6-5.3c-0.5-0.5-1.3-0.8-2-0.8s-1.4,0.3-2,0.8L12,16c-0.3,0.3-0.6,0.6-0.7,1c-0.2,0.4-0.3,0.8-0.3,1.2
	V27c0,0.8,0.3,1.6,0.9,2.1c0.6,0.6,1.3,0.9,2.1,0.9h12c0.8,0,1.6-0.3,2.1-0.9c0.6-0.6,0.9-1.3,0.9-2.1v-8.7c0-0.4-0.1-0.8-0.3-1.2
	C28.6,16.6,28.3,16.3,28,16L28,16z M22,28h-4v-5c0-0.3,0.1-0.5,0.3-0.7c0.2-0.2,0.4-0.3,0.7-0.3h2c0.3,0,0.5,0.1,0.7,0.3
	c0.2,0.2,0.3,0.4,0.3,0.7V28z M27,27c0,0.3-0.1,0.5-0.3,0.7C26.5,27.9,26.3,28,26,28h-2v-5c0-0.8-0.3-1.6-0.9-2.1
	C22.6,20.3,21.8,20,21,20h-2c-0.8,0-1.6,0.3-2.1,0.9C16.3,21.5,16,22.2,16,23v5h-2c-0.3,0-0.5-0.1-0.7-0.3C13.1,27.5,13,27.3,13,27
	v-8.7c0-0.1,0-0.3,0.1-0.4s0.1-0.2,0.3-0.3l6-5.2c0.2-0.2,0.4-0.2,0.7-0.2s0.5,0.1,0.7,0.2l6,5.2c0.1,0.1,0.2,0.2,0.3,0.3
	C27,18,27,18.1,27,18.3V27z"/>
</svg>
