<?xml version="1.0" encoding="utf-8"?>
<!-- Generator: Adobe Illustrator 24.0.0, SVG Export Plug-In . SVG Version: 6.00 Build 0)  -->
<svg version="1.1" id="Layer_1" xmlns="http://www.w3.org/2000/svg" xmlns:xlink="http://www.w3.org/1999/xlink" x="0px" y="0px"
	 viewBox="0 0 40 40" style="enable-background:new 0 0 40 40;" xml:space="preserve">
<style type="text/css">
	.st0{fill:#483737;}
	.st1{fill:#FFFFFF;}
</style>
<circle class="st0" cx="20" cy="20" r="20"/>
<g>
	<path class="st1" d="M16.6,28.5c-2.8,0-5.1-2.3-5.1-5.1v-6.8c0-2.8,2.3-5.1,5.1-5.1h6.8c2.8,0,5.1,2.3,5.1,5.1v6.8
		c0,2.8-2.3,5.1-5.1,5.1C23.4,28.5,16.6,28.5,16.6,28.5z"/>
	<path class="st0" d="M23.4,27h-6.8c-2,0-3.6-1.6-3.6-3.6v-6.8c0-2,1.6-3.6,3.6-3.6h6.8c2,0,3.6,1.6,3.6,3.6v6.8
		C27,25.4,25.4,27,23.4,27z"/>
	<circle class="st1" cx="20" cy="20" r="4.4"/>
	<circle class="st0" cx="20" cy="20" r="2.9"/>
	<circle class="st1" cx="24.4" cy="15.5" r="1"/>
</g>
</svg>
