<?xml version="1.0" encoding="utf-8"?>
<!-- Generator: Adobe Illustrator 24.0.0, SVG Export Plug-In . SVG Version: 6.00 Build 0)  -->
<svg version="1.1" id="Layer_1" xmlns="http://www.w3.org/2000/svg" xmlns:xlink="http://www.w3.org/1999/xlink" x="0px" y="0px"
	 viewBox="0 0 40 40" style="enable-background:new 0 0 40 40;" xml:space="preserve">
<style type="text/css">
	.st0{fill:#483737;}
	.st1{fill:#FFFFFF;}
	.st2{fill:#3C1E1E;}
</style>
<circle class="st0" cx="20" cy="20" r="20"/>
<path class="st1" d="M20,11.5c-5.4,0-9.8,3.4-9.8,7.7c0,2.7,1.8,5.2,4.6,6.5c-0.1,0.5-1,3.3-1,3.5c0,0,0,0.2,0.1,0.2
	c0.1,0.1,0.2,0,0.2,0c0.3,0,3.6-2.3,4.1-2.7c0.6,0.1,1.1,0.1,1.7,0.1c5.4,0,9.8-3.4,9.8-7.7C29.8,14.9,25.4,11.5,20,11.5z"/>
<path class="st2" d="M0,0"/>
</svg>
