<?xml version="1.0" encoding="utf-8"?>
<!-- Generator: Adobe Illustrator 24.0.0, SVG Export Plug-In . SVG Version: 6.00 Build 0)  -->
<svg version="1.1" id="Layer_1" xmlns="http://www.w3.org/2000/svg" xmlns:xlink="http://www.w3.org/1999/xlink" x="0px" y="0px"
	 viewBox="0 0 100 100" style="enable-background:new 0 0 100 100;" xml:space="preserve">
<style type="text/css">
	.st0{fill:#333333;}
</style>
<path class="st0" d="M67.5,60.7c-0.5-0.5-1-0.8-1.6-1.1c-0.6-0.3-1.3-0.4-1.9-0.4c-0.7,0-1.3,0.1-1.9,0.4c-0.6,0.3-1.2,0.6-1.6,1.1
	c-0.9,0.9-1.4,2.2-1.4,3.5c0,1.3,0.5,2.6,1.4,3.5l30.6,30.6c0.5,0.5,1,0.8,1.6,1.1c0.6,0.3,1.3,0.4,1.9,0.4s1.3-0.1,1.9-0.4
	c0.6-0.3,1.2-0.6,1.6-1.1c0.9-0.9,1.4-2.2,1.4-3.5c0-1.3-0.5-2.6-1.4-3.5L67.5,60.7z M73.6,48.3c3.9,0,7.7-1.6,10.5-4.4l14-14
	c0.9-0.9,1.4-2.2,1.4-3.5c0-1.3-0.5-2.6-1.4-3.5c-0.5-0.5-1-0.8-1.6-1.1c-0.6-0.3-1.3-0.4-1.9-0.4s-1.3,0.1-1.9,0.4
	c-0.6,0.3-1.2,0.6-1.6,1.1l-14,14c-0.9,0.9-2.2,1.4-3.5,1.4S71,37.9,70.1,37l17.6-17.6c0.9-0.9,1.4-2.2,1.4-3.5
	c0-1.3-0.5-2.6-1.4-3.5c-0.5-0.5-1-0.8-1.6-1.1c-0.6-0.3-1.3-0.4-1.9-0.4c-0.7,0-1.3,0.1-1.9,0.4c-0.6,0.3-1.2,0.6-1.6,1.1L63.1,30
	c-0.9-0.9-1.4-2.2-1.4-3.5c0-1.3,0.5-2.6,1.4-3.5l14-14c0.5-0.4,0.9-1,1.2-1.6c0.3-0.6,0.5-1.3,0.5-2c0-0.7-0.1-1.4-0.3-2
	c-0.2-0.6-0.6-1.2-1.1-1.7c-0.5-0.5-1.1-0.9-1.7-1.1c-0.6-0.2-1.3-0.4-2-0.3c-0.7,0-1.4,0.2-2,0.5c-0.6,0.3-1.2,0.7-1.6,1.2l-14,14
	c-2.8,2.8-4.4,6.6-4.4,10.5s1.6,7.7,4.4,10.5l-6,6.1l-7.7-7.6c2.2-4,3-8.5,2.4-13c-0.7-4.5-2.8-8.6-6-11.8C31.5,3.6,13-4.4,4.2,4.5
	c-8.7,8.9-0.8,27.2,6.1,34.4c3.9,3.9,9.1,6.2,14.6,6.3h0.7c3.4,0,6.6-1,9.5-2.7l7.8,7.6L1.9,91.2c-0.5,0.5-0.8,1-1.1,1.6
	c-0.2,0.6-0.4,1.2-0.4,1.9c0,0.7,0.1,1.3,0.4,1.9c0.3,0.6,0.6,1.1,1.1,1.6c0.5,0.5,1,0.8,1.6,1.1c0.6,0.2,1.2,0.4,1.9,0.4
	c0.7,0,1.3-0.1,1.9-0.4c0.6-0.3,1.1-0.6,1.6-1.1l44.6-44.6l9.5-9.5c1.4,1.4,3,2.5,4.9,3.2C69.7,48,71.7,48.4,73.6,48.3z M32.3,32.5
	c-0.9,0.9-2,1.6-3.3,2.1c-1.2,0.5-2.5,0.7-3.8,0.7c-2.9-0.1-5.6-1.4-7.6-3.5c-5.4-5.4-9.1-17.5-6.3-20.3c0.9-0.7,2.1-1.1,3.3-1
	c6.3,0.5,12.3,3.1,17.1,7.3c2,1.9,3.2,4.5,3.4,7.2S34.2,30.4,32.3,32.5z"/>
</svg>
